{"glyphs":{"0":{"ha":1291,"x_min":19,"x_max":1232,"o":"m 1029 945 q 1174 817 1127 920 q 1200 237 1232 682 q 1061 22 1173 46 q 193 33 552 -39 q 104 96 138 47 q 20 519 19 231 q 82 851 27 743 q 193 931 106 911 q 1029 945 614 1023 m 799 281 q 848 315 836 288 q 871 456 869 361 q 838 635 872 578 q 799 663 823 656 q 450 665 642 693 q 366 576 378 656 q 378 330 353 387 q 441 275 398 286 q 799 281 609 242 z "},"1":{"ha":581,"x_min":26,"x_max":502,"o":"m 178 962 q 29 711 44 823 q 72 677 26 681 l 178 673 q 198 28 182 328 q 218 2 198 6 q 448 3 286 -13 q 486 32 484 7 q 501 956 498 342 q 488 977 502 972 q 205 979 347 998 q 178 962 188 976 z "},"2":{"ha":1003,"x_min":3,"x_max":932,"o":"m 14 245 q 21 31 3 153 q 43 5 26 5 q 872 5 552 -9 q 896 25 892 6 q 895 267 912 118 q 869 300 891 299 q 572 297 749 298 q 720 363 667 347 q 827 444 791 398 q 870 803 932 614 q 521 990 802 971 q 35 859 271 1010 q 18 842 16 852 q 120 591 21 775 q 155 583 128 578 q 517 668 327 696 q 553 642 545 662 q 559 595 562 614 q 534 558 559 573 q 502 541 522 545 q 312 489 401 507 q 161 433 223 471 q 14 245 26 336 z "},"3":{"ha":934,"x_min":26,"x_max":928,"o":"m 780 474 q 828 791 878 494 q 736 941 808 924 q 60 872 473 1013 q 39 846 39 861 q 108 621 64 673 q 138 615 120 607 q 463 717 389 720 q 539 686 530 714 q 534 585 564 621 q 487 554 506 557 q 318 524 398 532 l 318 365 q 494 360 474 366 q 527 340 513 353 q 545 270 562 311 q 509 247 537 252 q 110 286 400 227 q 75 279 83 291 q 28 34 34 112 q 45 19 26 25 q 730 -14 415 -52 q 861 73 817 0 q 819 443 928 284 q 780 474 803 461 z "},"4":{"ha":1028,"x_min":5,"x_max":968,"o":"m 23 501 q 35 213 5 345 q 52 184 39 186 q 326 178 183 178 q 339 37 323 97 q 374 2 343 14 q 673 3 512 -29 q 695 43 689 9 q 702 189 702 123 q 938 205 817 196 q 956 225 953 207 q 962 467 968 322 q 944 502 960 501 q 549 504 751 507 q 836 772 711 640 q 828 813 848 783 q 656 1013 739 943 q 629 1020 642 1027 q 31 520 313 777 q 23 501 24 515 z "},"5":{"ha":965,"x_min":6,"x_max":916,"o":"m 364 685 q 841 690 646 688 q 867 724 863 690 q 867 968 884 875 q 844 989 864 987 q 47 983 555 996 q 24 956 29 982 q 17 660 6 832 q 87 402 33 469 q 288 430 195 424 q 486 425 380 435 q 522 416 507 426 q 554 386 550 407 q 559 341 561 370 q 527 294 558 308 q 120 302 348 218 q 88 288 93 302 q 10 77 20 175 q 31 64 10 66 q 608 6 368 -66 q 892 261 864 87 q 781 586 916 469 q 642 650 736 622 q 367 646 499 687 q 364 685 368 669 z "},"6":{"ha":934,"x_min":-1,"x_max":932,"o":"m 551 274 q 380 279 477 262 q 364 398 359 335 q 559 406 391 430 q 614 382 602 396 q 628 304 636 367 q 551 274 619 281 m 46 810 q 77 75 -1 422 q 105 20 86 33 q 405 -20 178 -15 q 814 47 726 -9 q 897 148 883 75 q 881 505 932 425 q 779 572 848 554 q 423 595 606 605 q 352 586 384 592 q 352 690 342 629 q 434 722 362 719 q 810 655 514 724 q 843 661 829 647 q 917 901 890 713 q 895 927 917 916 q 161 996 446 1068 q 46 810 75 977 z "},"7":{"ha":941,"x_min":16,"x_max":903,"o":"m 871 641 q 873 942 903 701 q 857 970 870 970 q 49 968 467 1000 q 31 948 34 966 q 18 707 16 852 q 35 672 19 673 q 445 662 222 663 q 146 137 277 392 q 165 98 138 123 q 359 -31 262 16 q 387 -31 376 -41 q 871 641 671 312 z "},"8":{"ha":1020,"x_min":-18,"x_max":993,"o":"m 799 962 q 189 942 484 1008 q 85 793 108 926 q 140 469 29 488 q 71 409 114 456 q 48 88 -18 302 q 197 1 82 16 q 791 1 496 -36 q 940 88 906 18 q 907 475 993 359 q 848 509 890 496 q 902 806 959 529 q 799 962 880 946 m 455 569 q 376 602 402 567 q 381 701 346 635 q 484 732 393 728 q 587 701 573 728 q 580 600 622 635 q 455 569 540 572 m 530 401 q 618 364 589 404 q 634 252 653 326 q 497 217 631 219 q 360 252 375 220 q 388 366 340 326 q 530 401 433 397 z "},"9":{"ha":934,"x_min":14,"x_max":947,"o":"m 394 726 q 566 722 469 738 q 581 602 587 666 q 387 595 554 570 q 332 618 344 604 q 317 696 309 634 q 394 726 326 720 m 899 190 q 868 926 947 578 q 840 981 859 967 q 541 1020 768 1015 q 131 954 220 1009 q 49 852 62 925 q 64 496 14 575 q 167 428 97 446 q 522 405 340 395 q 593 414 562 408 q 593 310 603 371 q 511 279 583 281 q 135 345 431 276 q 102 340 116 353 q 28 99 55 288 q 51 73 28 85 q 785 5 499 -68 q 899 190 871 23 z "}," ":{"ha":345,"x_min":0,"x_max":0,"o":""}," ":{"ha":345,"x_min":0,"x_max":0,"o":""},"!":{"ha":448,"x_min":20,"x_max":405,"o":"m 353 255 q 67 254 177 260 q 40 224 47 253 q 40 31 20 108 q 75 -3 44 8 q 374 -3 213 -35 q 391 26 390 3 q 395 231 405 144 q 353 255 392 254 m 322 307 q 360 326 358 310 q 395 970 393 543 q 382 985 395 982 q 58 987 220 999 q 29 968 30 983 q 72 324 30 616 q 92 305 72 309 q 322 307 159 295 z "},"\"":{"ha":846,"x_min":16,"x_max":801,"o":"m 395 882 q 391 969 395 924 q 369 1010 385 1004 q 70 1010 208 1042 q 35 976 39 999 q 33 788 16 899 q 62 753 40 759 q 162 750 106 751 q 133 649 155 715 q 143 621 124 626 q 383 738 357 633 q 395 882 401 791 m 795 882 q 791 969 795 924 q 769 1010 785 1004 q 470 1010 608 1042 q 435 976 439 999 q 433 788 416 899 q 463 753 440 759 q 562 750 507 751 q 533 649 555 715 q 543 621 524 626 q 783 738 758 633 q 795 882 801 791 z "},"#":{"ha":1176,"x_min":7,"x_max":1116,"o":"m 172 446 q 50 445 112 446 q 28 435 33 445 q 26 233 7 330 q 53 212 31 212 l 102 212 q 44 28 75 125 q 59 1 34 9 q 377 -1 214 -14 q 414 26 405 4 q 458 211 439 123 l 548 211 q 490 28 522 125 q 505 1 480 9 q 823 -1 660 -14 q 860 26 851 4 q 905 212 885 124 q 1004 213 956 212 q 1032 228 1028 214 q 1036 422 1053 302 q 1006 449 1032 448 q 953 450 981 449 q 955 463 954 456 q 966 533 960 498 q 1067 534 1019 533 q 1095 549 1091 534 q 1099 743 1116 623 q 1070 770 1095 768 q 1015 770 1044 770 q 1059 939 1041 863 q 1019 982 1065 970 q 755 977 850 996 q 730 954 733 968 q 691 771 712 872 q 569 770 632 770 q 612 939 595 863 q 573 982 618 970 q 309 977 404 996 q 283 954 287 968 q 244 767 265 871 q 113 766 180 766 q 92 755 96 766 q 89 553 70 651 q 116 532 94 532 l 195 532 q 172 446 184 492 m 641 532 q 618 450 631 493 q 507 450 565 450 q 509 463 507 456 q 519 532 514 498 l 641 532 z "},"$":{"ha":972,"x_min":-28,"x_max":954,"o":"m 267 983 q 172 973 218 979 q 40 875 73 951 q 81 450 -28 629 q 194 387 117 404 q 555 361 334 353 q 578 321 604 353 q 534 296 562 302 q 98 313 425 286 q 64 304 73 318 q 31 54 33 121 q 47 37 28 44 q 264 1 159 14 q 273 -79 266 -36 q 302 -113 279 -108 q 588 -115 412 -119 q 631 -90 626 -115 q 635 -12 635 -53 q 753 -1 695 -8 q 884 98 851 20 q 844 522 954 344 q 731 585 808 569 q 395 606 526 631 q 355 650 349 601 q 391 677 358 672 q 826 660 500 686 q 861 667 852 654 q 895 918 892 851 q 878 935 897 928 q 633 974 751 961 q 631 1019 633 996 q 608 1059 625 1053 q 309 1060 448 1091 q 275 1025 279 1048 q 267 983 269 1005 z "},"%":{"ha":1261,"x_min":-7,"x_max":1219,"o":"m 823 979 q 785 955 795 970 q 574 659 705 838 q 66 30 349 366 q 67 3 45 10 q 395 0 214 -12 q 446 28 426 5 q 755 464 628 278 q 971 767 871 635 q 1106 941 1047 863 q 1088 983 1128 972 q 823 979 927 998 m 35 528 q -1 854 -7 589 q 73 966 5 926 q 335 984 142 1003 q 435 833 419 974 q 403 536 448 623 q 205 472 366 471 q 35 528 69 475 m 165 685 q 197 645 174 651 q 269 665 262 635 q 250 810 281 797 q 170 810 208 827 q 165 685 144 797 m 806 444 q 977 500 840 497 q 1174 436 1137 501 q 1206 139 1219 349 q 1106 -12 1190 -2 q 844 6 913 -31 q 770 117 776 46 q 806 444 764 383 m 936 287 q 941 161 915 175 q 1021 161 979 145 q 1040 307 1053 175 q 968 328 1033 338 q 936 287 945 321 z "},"&":{"ha":934,"x_min":-14,"x_max":888,"o":"m 265 958 q 178 941 220 952 q 87 791 106 924 q 135 474 37 494 q 96 443 112 461 q 54 73 -14 284 q 185 -14 98 0 q 264 -22 224 -19 q 275 -94 267 -61 q 309 -128 279 -117 q 608 -127 448 -159 q 631 -87 625 -121 q 635 -16 634 -50 q 869 19 749 -4 q 886 34 888 25 q 840 279 881 112 q 805 286 831 291 q 406 247 515 227 q 370 270 378 252 q 388 340 353 311 q 420 360 401 353 q 597 365 441 366 l 597 524 q 428 554 517 532 q 380 585 409 557 q 376 686 351 621 q 452 717 385 714 q 777 615 526 720 q 807 621 795 607 q 876 846 851 673 q 855 872 876 861 q 635 935 739 911 q 631 1019 634 975 q 608 1059 625 1053 q 309 1060 448 1091 q 275 1025 279 1048 q 265 958 267 995 z "},"'":{"ha":446,"x_min":16,"x_max":401,"o":"m 395 882 q 391 969 395 924 q 369 1010 385 1004 q 70 1010 208 1042 q 35 976 39 999 q 33 788 16 899 q 62 753 40 759 q 162 750 106 751 q 133 649 155 715 q 143 621 124 626 q 383 738 357 633 q 395 882 401 791 z "},"(":{"ha":664,"x_min":-10,"x_max":596,"o":"m 338 461 q 337 321 338 461 q 361 158 336 181 q 551 146 433 121 q 574 140 568 153 q 587 -92 596 85 q 574 -116 590 -109 q 205 -106 416 -159 q 62 -13 107 -82 q 36 850 -10 119 q 176 1065 63 1031 q 564 1088 413 1126 q 585 1063 589 1078 q 574 822 591 916 q 541 809 563 802 q 363 762 429 820 q 338 461 340 742 z "},")":{"ha":664,"x_min":12,"x_max":618,"o":"m 270 506 q 270 646 270 506 q 246 809 271 786 q 57 821 174 846 q 33 827 39 814 q 20 1059 12 882 q 34 1083 18 1076 q 402 1074 191 1126 q 545 980 500 1049 q 572 117 618 848 q 432 -98 545 -64 q 43 -121 195 -159 q 22 -96 19 -111 q 34 145 17 52 q 66 158 45 165 q 245 205 178 147 q 270 506 268 225 z "},"*":{"ha":756,"x_min":12,"x_max":684,"o":"m 572 703 q 673 808 620 753 q 673 827 681 816 q 485 1021 585 936 q 452 1029 463 1038 q 347 926 397 975 q 242 1027 297 975 q 223 1027 235 1035 q 30 839 115 940 q 21 807 12 817 q 122 703 73 753 q 22 603 68 650 q 24 576 12 592 q 205 390 85 496 q 243 377 230 367 q 347 477 289 420 q 448 377 400 423 q 475 379 458 367 q 661 559 554 439 q 673 597 684 585 q 572 703 630 644 z "},"+":{"ha":717,"x_min":7,"x_max":673,"o":"m 496 644 q 493 790 495 713 q 479 804 493 801 q 210 805 340 817 q 181 788 182 802 q 180 640 180 711 q 35 637 111 639 q 21 623 24 637 q 20 353 7 484 q 37 325 23 326 q 182 324 112 324 q 183 182 182 249 q 203 165 184 168 q 463 163 302 152 q 498 181 497 165 q 500 325 500 243 q 642 327 576 326 q 660 347 657 328 q 662 606 673 446 q 644 642 660 641 q 496 644 580 644 z "},",":{"ha":446,"x_min":16,"x_max":401,"o":"m 395 116 q 391 203 395 158 q 369 244 385 238 q 70 245 208 276 q 35 210 39 233 q 33 22 16 134 q 62 -12 40 -7 q 162 -16 106 -15 q 133 -117 155 -51 q 143 -145 124 -140 q 383 -28 357 -132 q 395 116 401 26 z "},"-":{"ha":717,"x_min":7,"x_max":673,"o":"m 662 606 q 644 642 660 641 q 35 637 439 648 q 21 623 24 637 q 20 353 7 484 q 37 325 23 326 q 642 327 402 323 q 660 347 657 328 q 662 606 673 446 z "},"­":{"ha":717,"x_min":7,"x_max":673,"o":"m 662 606 q 644 642 660 641 q 35 637 439 648 q 21 623 24 637 q 20 353 7 484 q 37 325 23 326 q 642 327 402 323 q 660 347 657 328 q 662 606 673 446 z "},".":{"ha":446,"x_min":16,"x_max":400,"o":"m 349 -14 q 391 12 387 -14 q 391 203 400 97 q 369 244 385 238 q 70 245 208 276 q 35 210 39 233 q 33 22 16 134 q 62 -12 40 -7 q 349 -14 172 -18 z "},"/":{"ha":845,"x_min":14,"x_max":795,"o":"m 487 979 q 456 955 463 970 q 338 659 414 838 q 28 30 206 366 q 37 3 14 10 q 367 0 189 -12 q 409 28 395 5 q 581 464 513 278 q 702 767 643 635 q 783 941 748 863 q 751 983 795 972 q 487 979 586 998 z "},":":{"ha":446,"x_min":16,"x_max":400,"o":"m 349 -14 q 391 12 387 -14 q 391 203 400 97 q 369 244 385 238 q 70 245 208 276 q 35 210 39 233 q 33 22 16 134 q 62 -12 40 -7 q 349 -14 172 -18 m 349 418 q 391 444 387 418 q 391 635 400 529 q 369 676 385 670 q 70 677 208 708 q 35 642 39 665 q 33 454 16 566 q 62 420 40 425 q 349 418 172 414 m 349 -14 q 391 12 387 -14 q 391 203 400 97 q 369 244 385 238 q 70 245 208 276 q 35 210 39 233 q 33 22 16 134 q 62 -12 40 -7 q 349 -14 172 -18 z "},";":{"ha":446,"x_min":16,"x_max":401,"o":"m 395 116 q 391 203 395 158 q 369 244 385 238 q 70 245 208 276 q 35 210 39 233 q 33 22 16 134 q 62 -12 40 -7 q 162 -16 106 -15 q 133 -117 155 -51 q 143 -145 124 -140 q 383 -28 357 -132 q 395 116 401 26 m 349 418 q 391 444 387 418 q 391 635 400 529 q 369 676 385 670 q 70 677 208 708 q 35 642 39 665 q 33 454 16 566 q 62 420 40 425 q 349 418 172 414 z "},";":{"ha":446,"x_min":16,"x_max":401,"o":"m 395 116 q 391 203 395 158 q 369 244 385 238 q 70 245 208 276 q 35 210 39 233 q 33 22 16 134 q 62 -12 40 -7 q 162 -16 106 -15 q 133 -117 155 -51 q 143 -145 124 -140 q 383 -28 357 -132 q 395 116 401 26 m 349 418 q 391 444 387 418 q 391 635 400 529 q 369 676 385 670 q 70 677 208 708 q 35 642 39 665 q 33 454 16 566 q 62 420 40 425 q 349 418 172 414 z "},"<":{"ha":864,"x_min":9,"x_max":785,"o":"m 60 708 q 41 689 45 703 q 34 289 9 476 q 54 264 36 273 q 656 71 300 161 q 680 84 671 68 q 774 307 727 171 q 770 346 785 340 q 377 484 444 471 q 758 621 606 551 q 762 660 772 628 q 655 880 714 798 q 631 894 646 897 q 60 708 421 846 z "},"=":{"ha":717,"x_min":7,"x_max":673,"o":"m 662 824 q 644 860 660 859 q 35 854 439 865 q 21 841 24 854 q 20 571 7 702 q 37 543 23 543 q 642 545 402 541 q 660 565 657 545 q 662 824 673 664 m 662 393 q 644 429 660 428 q 35 424 439 435 q 21 410 24 424 q 20 140 7 271 q 37 112 23 113 q 642 114 402 110 q 660 134 657 115 q 662 393 673 233 z "},">":{"ha":864,"x_min":17,"x_max":793,"o":"m 742 257 q 760 276 757 262 q 768 676 793 489 q 748 701 766 692 q 145 894 501 804 q 121 881 131 897 q 27 658 75 795 q 32 619 17 625 q 425 481 358 494 q 44 344 195 414 q 39 305 29 338 q 146 85 87 168 q 170 71 155 68 q 742 257 380 119 z "},"?":{"ha":1012,"x_min":13,"x_max":908,"o":"m 201 410 q 223 280 200 303 q 542 278 520 264 q 640 381 540 363 q 805 465 771 418 q 848 820 908 632 q 507 1005 781 987 q 32 875 262 1025 q 16 858 13 868 q 115 610 18 792 q 149 602 123 597 q 505 715 317 714 q 541 689 532 711 q 547 644 548 661 q 524 606 546 621 q 474 587 505 594 q 277 516 342 559 q 201 410 212 473 m 515 243 q 229 241 339 248 q 200 208 207 236 q 202 26 182 100 q 237 -7 206 4 q 536 -6 375 -37 q 558 33 552 0 q 558 218 567 136 q 515 243 553 243 z "},"@":{"ha":1483,"x_min":14,"x_max":1409,"o":"m 892 455 q 929 481 921 465 q 914 659 970 571 q 500 707 871 736 q 429 491 414 690 q 497 271 451 281 q 1310 277 967 250 q 1329 242 1331 259 q 1294 14 1342 99 q 1268 -7 1290 -1 q 290 -14 779 -27 q 62 101 88 7 q 14 669 20 258 l 14 668 q 150 941 20 904 q 925 994 371 1015 q 1339 828 1280 982 q 1334 444 1409 599 q 1057 321 1241 329 q 598 321 800 315 q 513 378 543 325 q 498 579 484 431 q 614 656 507 644 q 844 632 777 666 q 893 479 894 603 q 892 455 893 467 m 629 460 q 730 446 637 437 q 764 470 758 452 q 752 529 777 521 q 635 523 647 547 q 629 460 618 490 z "},"A":{"ha":1154,"x_min":31,"x_max":1112,"o":"m 411 184 q 728 186 581 174 q 792 -36 758 81 q 834 -45 798 -52 q 1094 39 996 0 q 1110 61 1112 45 q 888 956 1006 583 q 848 983 882 978 q 290 974 587 1011 q 262 956 267 968 q 33 55 144 583 q 50 33 31 39 q 299 -52 145 -18 q 341 -43 336 -58 q 411 184 377 66 m 521 602 q 629 603 576 602 q 673 422 650 512 q 476 420 584 422 q 521 602 500 511 z "},"B":{"ha":1170,"x_min":24,"x_max":1147,"o":"m 764 674 q 763 623 766 644 q 738 574 761 596 q 705 554 724 557 q 486 547 585 524 q 484 709 486 610 q 684 711 595 720 q 764 674 754 703 m 412 -22 q 949 -14 684 -52 q 1083 90 1049 15 q 1038 443 1147 284 q 999 474 1022 461 q 1046 791 1097 495 q 937 950 1019 918 q 500 1004 764 1007 q 47 925 259 1001 q 24 897 26 913 q 48 661 24 800 q 67 648 52 648 q 130 652 99 650 q 141 43 126 368 q 162 18 143 28 q 412 -22 247 0 m 486 359 q 589 364 519 363 q 746 340 731 359 q 770 275 770 309 q 764 228 772 260 q 728 205 756 210 q 484 195 631 187 q 486 359 484 267 z "},"C":{"ha":1003,"x_min":-10,"x_max":953,"o":"m 884 314 q 950 102 923 245 q 937 78 953 85 q 205 16 559 -51 q 62 109 107 40 q 36 728 -10 241 q 176 943 64 919 q 892 946 576 1004 q 913 921 917 936 q 848 689 894 796 q 804 677 838 669 q 406 643 593 698 q 359 604 370 633 q 354 460 349 551 q 395 287 363 340 q 437 262 412 267 q 861 319 597 243 q 884 314 878 326 z "},"D":{"ha":1232,"x_min":33,"x_max":1160,"o":"m 117 664 q 129 45 113 389 q 151 29 131 32 q 978 24 624 -47 q 1115 224 1093 56 q 1089 853 1160 718 q 949 952 1045 924 q 52 941 602 1029 q 38 916 35 933 q 51 665 33 770 q 74 660 56 653 q 117 664 93 662 m 462 296 q 460 674 465 481 q 725 671 641 690 q 766 645 749 666 q 803 504 797 589 q 798 344 808 404 q 752 305 787 315 q 462 296 614 274 z "},"E":{"ha":1008,"x_min":5,"x_max":963,"o":"m 465 303 q 466 372 466 338 q 753 384 626 380 q 770 399 768 385 q 773 591 784 473 q 754 618 770 617 q 464 614 640 618 q 463 679 463 646 q 867 686 665 686 q 891 722 888 688 q 882 960 902 867 q 857 978 877 979 q 28 959 376 990 q 5 931 9 958 q 33 670 7 803 q 52 659 37 658 q 114 663 83 661 q 126 26 110 374 q 148 8 128 11 q 331 2 223 -1 q 928 24 690 2 q 948 43 945 24 q 951 288 963 137 q 930 323 948 321 q 465 303 762 312 z "},"F":{"ha":947,"x_min":9,"x_max":904,"o":"m 115 652 q 127 26 111 368 q 148 8 129 11 q 421 6 252 -5 q 459 24 458 8 q 466 344 465 183 q 755 366 627 359 q 773 381 770 367 q 775 567 786 448 q 757 593 773 593 q 465 589 642 594 q 463 663 465 626 q 866 665 665 667 q 891 702 888 667 q 885 950 904 853 q 861 970 881 970 q 32 962 380 989 q 9 934 13 961 q 33 661 9 800 q 52 648 37 648 q 115 652 83 650 z "},"G":{"ha":988,"x_min":-10,"x_max":937,"o":"m 606 48 q 205 16 414 -24 q 62 109 107 40 q 36 728 -10 241 q 176 943 58 900 q 912 911 553 1041 q 933 886 937 901 q 868 654 913 762 q 824 643 857 635 q 406 643 593 698 q 359 604 370 633 q 354 460 349 551 q 389 332 357 386 q 431 308 406 312 q 596 349 502 301 q 597 555 594 471 q 632 572 598 570 q 884 570 787 583 q 903 555 903 568 q 905 9 916 326 q 878 -6 905 -3 q 620 -3 750 -17 q 607 9 607 -1 q 606 48 606 29 z "},"H":{"ha":1021,"x_min":28,"x_max":968,"o":"m 595 518 q 406 518 510 519 q 397 959 404 735 q 382 973 397 970 q 83 975 229 987 q 52 957 53 971 q 54 18 28 559 q 77 -1 56 2 q 363 -3 186 -14 q 404 16 401 0 q 406 222 406 119 q 602 236 507 229 q 606 20 604 127 q 646 -7 608 -4 q 917 -1 810 -22 q 938 26 938 4 q 930 951 968 382 q 899 976 928 971 q 602 949 753 976 q 587 928 587 945 q 595 518 591 722 z "},"I":{"ha":455,"x_min":14,"x_max":398,"o":"m 347 714 q 389 738 385 715 q 384 943 398 825 q 367 972 383 966 q 68 972 206 1004 q 33 938 37 961 q 33 745 14 861 q 60 715 40 716 q 347 714 170 709 m 315 1 q 353 20 351 3 q 368 647 366 230 q 355 661 368 658 q 72 663 214 675 q 43 645 43 659 q 65 18 43 301 q 85 -1 65 2 q 315 1 152 -11 z "},"J":{"ha":1054,"x_min":-8,"x_max":1029,"o":"m 616 947 q 930 962 732 994 q 954 949 947 965 q 962 182 1029 536 q 869 39 938 84 q 250 13 736 -33 q 35 153 59 41 q 56 624 -8 426 q 81 645 66 648 q 313 580 205 625 q 324 536 332 569 q 325 366 298 442 q 494 329 351 317 q 618 367 564 335 q 642 408 638 384 q 611 924 662 568 q 616 947 604 942 z "},"K":{"ha":999,"x_min":19,"x_max":949,"o":"m 383 284 q 431 321 408 303 q 683 -26 589 100 q 709 -29 692 -37 q 922 100 797 12 q 942 132 949 120 q 684 526 862 254 q 927 740 817 638 q 930 767 940 751 q 781 962 884 850 q 744 976 759 986 q 381 666 602 850 q 371 956 378 810 q 357 969 371 966 q 72 970 210 983 q 42 954 43 967 q 44 19 19 557 q 66 1 46 4 q 338 -1 170 -12 q 377 18 375 1 q 383 284 382 151 z "},"L":{"ha":905,"x_min":-3,"x_max":852,"o":"m 44 6 q 817 9 368 -11 q 839 37 836 14 q 841 275 852 123 q 821 309 838 308 q 361 300 641 308 q 349 948 365 621 q 335 962 349 959 q 50 963 189 975 q 20 946 21 960 q 22 31 -3 555 q 44 6 26 10 z "},"M":{"ha":1291,"x_min":20,"x_max":1230,"o":"m 430 442 q 609 239 507 353 q 627 229 616 229 q 646 239 638 229 q 821 438 745 351 q 883 6 849 211 q 925 -9 886 -10 q 1211 15 1103 -7 q 1230 35 1230 19 q 1114 917 1183 574 q 1075 944 1112 930 q 781 980 926 983 q 762 968 768 978 q 627 761 701 875 q 492 968 553 875 q 470 980 485 978 q 176 944 325 983 q 136 917 139 930 q 20 35 67 574 q 41 15 20 19 q 326 -9 148 -7 q 368 6 364 -10 q 430 442 402 212 z "},"N":{"ha":1057,"x_min":39,"x_max":988,"o":"m 383 355 q 636 3 526 138 q 665 -21 654 -20 q 953 41 842 -24 q 988 81 985 59 q 961 932 984 536 q 939 960 961 954 q 695 991 868 983 q 655 969 657 992 q 644 604 649 830 q 384 979 497 824 q 370 990 376 989 q 75 930 170 994 q 39 890 39 908 q 66 39 43 435 q 88 11 67 18 q 332 -20 159 -12 q 372 2 370 -21 q 383 355 378 137 z "},"O":{"ha":1291,"x_min":19,"x_max":1232,"o":"m 1029 945 q 1174 817 1127 920 q 1200 237 1232 682 q 1061 22 1173 46 q 193 33 552 -39 q 104 96 138 47 q 20 519 19 231 q 82 851 27 743 q 193 931 106 911 q 1029 945 614 1023 m 799 281 q 848 315 836 288 q 871 456 869 361 q 838 635 872 578 q 799 663 823 656 q 450 665 642 693 q 366 576 378 656 q 378 330 353 387 q 441 275 398 286 q 799 281 609 242 z "},"P":{"ha":1162,"x_min":24,"x_max":1120,"o":"m 132 652 q 149 36 131 368 q 170 18 151 21 q 448 -9 275 -5 q 486 9 484 -7 q 486 260 486 142 q 952 281 726 238 q 1064 355 1029 300 q 1081 785 1120 458 q 989 934 1064 902 q 540 1006 892 994 q 47 925 258 1001 q 24 897 26 910 q 50 661 25 800 q 69 648 54 648 q 132 652 101 650 m 712 667 q 788 636 779 665 q 794 574 797 595 q 771 489 795 531 q 739 469 758 473 q 485 469 584 446 q 481 666 484 568 q 712 667 625 671 z "},"Q":{"ha":1291,"x_min":0,"x_max":1271,"o":"m 791 275 q 854 330 833 286 q 866 576 880 387 q 783 665 854 656 q 433 663 576 693 q 393 635 409 656 q 360 456 359 578 q 385 315 363 361 q 433 281 396 288 q 791 275 609 242 m 907 13 q 185 19 559 -30 q 31 237 52 56 q 58 817 0 682 q 203 945 100 911 q 1040 931 605 1023 q 1150 851 1122 916 q 1212 519 1205 743 q 1171 191 1213 318 q 1261 87 1222 136 q 1249 53 1271 76 q 1067 -106 1145 -53 q 1041 -107 1051 -117 q 907 13 978 -55 z "},"R":{"ha":1152,"x_min":24,"x_max":1116,"o":"m 786 636 q 791 574 794 595 q 768 489 792 531 q 735 469 754 473 q 481 469 581 446 q 479 666 481 568 q 710 667 623 671 q 786 636 777 665 m 481 258 q 844 -86 721 23 q 869 -85 854 -96 q 1051 74 947 -32 q 1064 109 1074 97 q 903 273 1008 163 q 947 281 925 277 q 1059 355 1024 300 q 1080 785 1116 458 q 968 941 1055 907 q 532 1005 738 1015 q 47 925 222 992 q 24 897 26 910 q 48 661 24 800 q 67 648 52 648 q 130 652 99 650 q 141 36 126 368 q 162 18 143 21 q 433 -9 268 -5 q 471 9 470 -7 q 481 258 479 140 z "},"S":{"ha":972,"x_min":-28,"x_max":954,"o":"m 415 618 q 355 650 345 610 q 391 677 358 672 q 826 660 500 686 q 861 667 852 654 q 895 918 892 851 q 878 935 897 928 q 172 973 486 1015 q 40 875 73 951 q 81 450 -28 629 q 194 387 117 404 q 555 361 334 353 q 578 321 604 353 q 534 296 562 302 q 98 313 425 286 q 64 304 73 318 q 31 54 33 121 q 47 37 28 44 q 753 -1 438 -43 q 884 98 851 20 q 844 522 954 344 q 724 591 808 569 q 415 618 566 627 z "},"T":{"ha":1028,"x_min":19,"x_max":963,"o":"m 303 617 q 328 26 304 347 q 349 8 330 11 q 591 -3 465 -15 q 629 16 628 -1 q 650 625 651 319 q 916 629 785 627 q 942 669 935 629 q 950 932 963 833 q 921 957 946 954 q 43 953 438 1013 q 19 921 24 951 q 44 625 19 777 q 64 611 48 610 q 303 617 185 614 z "},"U":{"ha":1069,"x_min":-14,"x_max":1042,"o":"m 681 956 q 936 995 762 982 q 960 981 953 998 q 975 177 1042 530 q 882 34 951 79 q 262 7 749 -39 q 48 147 72 36 q 68 965 -14 548 q 93 986 73 986 q 338 941 231 987 q 350 897 358 930 q 348 377 311 564 q 387 331 357 341 q 531 326 439 321 q 685 366 631 334 q 709 407 705 382 q 675 932 729 567 q 681 956 669 950 z "},"V":{"ha":1170,"x_min":5,"x_max":1117,"o":"m 320 10 q 341 -8 326 -5 q 778 -16 574 -41 q 805 4 795 -14 q 1114 882 962 371 q 1099 905 1117 896 q 856 1000 1005 952 q 814 995 820 1010 q 566 328 676 669 q 306 1017 452 673 q 264 1022 299 1032 q 23 915 113 974 q 8 891 5 906 q 320 10 169 372 z "},"W":{"ha":1291,"x_min":20,"x_max":1230,"o":"m 430 528 q 368 964 402 758 q 326 980 364 981 q 41 956 148 977 q 20 936 20 951 q 136 54 67 397 q 176 26 139 40 q 470 -9 325 -12 q 492 3 485 -7 q 627 210 553 96 q 762 3 701 96 q 781 -9 768 -7 q 1075 26 926 -12 q 1114 54 1112 40 q 1230 936 1183 397 q 1211 956 1230 951 q 925 980 1103 977 q 883 964 886 981 q 821 532 849 760 q 646 732 745 619 q 627 742 638 743 q 609 732 616 743 q 430 528 507 617 z "},"X":{"ha":1112,"x_min":12,"x_max":1050,"o":"m 772 495 q 1038 787 929 663 q 1029 821 1047 798 q 825 1019 939 926 q 805 1020 813 1027 q 530 751 674 899 q 253 1019 385 898 q 233 1018 245 1026 q 31 819 120 924 q 21 785 12 795 q 288 494 131 661 q 23 195 160 353 q 37 154 13 182 q 233 -35 149 28 q 261 -38 249 -47 q 531 240 406 111 q 803 -37 656 111 q 831 -34 814 -46 q 1025 157 914 31 q 1040 197 1050 184 q 772 495 901 355 z "},"Y":{"ha":1029,"x_min":4,"x_max":982,"o":"m 672 452 q 973 764 797 566 q 964 795 982 774 q 758 996 890 897 q 739 996 746 1004 q 493 717 586 821 q 247 996 400 821 q 229 996 239 1004 q 21 795 96 897 q 13 764 4 774 q 328 439 199 555 q 337 24 328 246 q 359 6 339 9 q 631 4 463 -7 q 670 22 669 6 q 672 452 679 186 z "},"Z":{"ha":1057,"x_min":14,"x_max":1042,"o":"m 645 345 q 1009 597 869 487 q 1034 627 1032 616 q 981 928 1042 810 q 943 966 964 961 q 77 966 487 977 q 49 944 56 966 q 20 669 23 871 q 41 627 18 629 q 409 626 179 615 q 26 368 184 481 q 14 336 14 361 q 64 45 17 111 q 102 7 85 8 q 968 7 558 -3 q 997 29 989 7 q 1025 301 1022 102 q 1004 343 1027 340 q 645 345 870 354 z "},"[":{"ha":664,"x_min":7,"x_max":596,"o":"m 337 476 q 338 319 337 476 q 351 148 338 161 q 551 146 433 121 q 574 140 568 153 q 587 -92 596 85 q 574 -116 590 -109 q 200 -145 416 -159 q 57 -105 62 -133 q 36 850 7 347 q 94 1086 49 1066 q 564 1088 413 1126 q 585 1063 589 1078 q 574 822 591 916 q 541 809 563 802 q 353 801 429 820 q 337 476 336 791 z "},"\\":{"ha":845,"x_min":13,"x_max":794,"o":"m 321 979 q 56 983 222 998 q 25 941 13 972 q 106 767 60 863 q 227 464 165 635 q 399 28 295 278 q 441 0 412 5 q 770 3 619 -12 q 779 30 794 10 q 469 659 602 366 q 351 955 394 838 q 321 979 345 970 z "},"]":{"ha":664,"x_min":19,"x_max":608,"o":"m 278 482 q 277 640 278 482 q 264 810 277 797 q 64 812 182 838 q 41 818 47 806 q 28 1050 19 873 q 41 1074 25 1067 q 415 1103 199 1118 q 558 1063 553 1091 q 579 108 608 612 q 522 -127 566 -108 q 51 -130 202 -168 q 30 -104 26 -119 q 41 136 24 43 q 74 149 52 156 q 262 157 186 138 q 278 482 279 168 z "},"^":{"ha":688,"x_min":-115,"x_max":431,"o":"m 177 1399 q 140 1399 157 1404 q -104 1227 9 1345 q -100 1181 -115 1213 q 10 1024 -46 1089 q 60 1027 28 1006 q 159 1094 113 1063 q 258 1027 204 1063 q 307 1024 289 1006 q 416 1181 363 1089 q 422 1227 431 1213 q 177 1399 308 1345 z "},"_":{"ha":1002,"x_min":12,"x_max":962,"o":"m 947 237 q 920 273 944 272 q 50 268 629 279 q 31 254 35 268 q 29 -16 12 115 q 53 -44 34 -43 q 918 -42 576 -46 q 944 -22 940 -41 q 947 237 962 77 z "},"`":{"ha":503,"x_min":9,"x_max":432,"o":"m 183 1390 q 134 1394 152 1411 q 24 1236 77 1329 q 19 1190 9 1204 q 264 1019 132 1072 q 312 1027 295 1010 q 421 1180 372 1078 q 417 1225 432 1208 q 183 1390 330 1293 z "},"a":{"ha":1154,"x_min":0,"x_max":0,"o":""},"b":{"ha":675,"x_min":0,"x_max":0,"o":""},"c":{"ha":614,"x_min":0,"x_max":0,"o":""},"d":{"ha":705,"x_min":0,"x_max":0,"o":""},"e":{"ha":616,"x_min":0,"x_max":0,"o":""},"f":{"ha":379,"x_min":0,"x_max":0,"o":""},"g":{"ha":610,"x_min":0,"x_max":0,"o":""},"h":{"ha":749,"x_min":0,"x_max":0,"o":""},"i":{"ha":349,"x_min":0,"x_max":0,"o":""},"j":{"ha":346,"x_min":0,"x_max":0,"o":""},"k":{"ha":696,"x_min":0,"x_max":0,"o":""},"l":{"ha":354,"x_min":0,"x_max":0,"o":""},"m":{"ha":1064,"x_min":0,"x_max":0,"o":""},"n":{"ha":751,"x_min":0,"x_max":0,"o":""},"o":{"ha":685,"x_min":0,"x_max":0,"o":""},"p":{"ha":1116,"x_min":0,"x_max":0,"o":""},"q":{"ha":694,"x_min":0,"x_max":0,"o":""},"r":{"ha":469,"x_min":0,"x_max":0,"o":""},"s":{"ha":476,"x_min":0,"x_max":0,"o":""},"t":{"ha":457,"x_min":0,"x_max":0,"o":""},"u":{"ha":718,"x_min":0,"x_max":0,"o":""},"v":{"ha":673,"x_min":0,"x_max":0,"o":""},"w":{"ha":960,"x_min":0,"x_max":0,"o":""},"x":{"ha":685,"x_min":0,"x_max":0,"o":""},"y":{"ha":589,"x_min":0,"x_max":0,"o":""},"z":{"ha":493,"x_min":0,"x_max":0,"o":""},"{":{"ha":688,"x_min":0,"x_max":0,"o":""},"|":{"ha":449,"x_min":30,"x_max":387,"o":"m 351 977 q 89 981 260 996 q 40 939 41 970 q 31 26 30 772 q 61 -2 35 3 q 354 1 234 -14 q 374 28 381 8 q 372 953 387 360 q 351 977 372 968 z "},"}":{"ha":688,"x_min":0,"x_max":0,"o":""},"~":{"ha":729,"x_min":18,"x_max":658,"o":"m 637 1122 q 656 1177 658 1128 l 658 1385 q 640 1406 652 1412 q 351 1398 458 1369 q 35 1408 114 1431 q 18 1379 23 1408 l 19 1154 q 34 1107 18 1107 q 163 1142 100 1136 q 359 1106 248 1146 q 637 1122 496 1076 z "},"¡":{"ha":448,"x_min":20,"x_max":405,"o":"m 353 719 q 395 743 392 720 q 391 948 405 829 q 374 977 390 970 q 75 977 213 1008 q 40 943 44 966 q 40 750 20 866 q 67 720 47 721 q 353 719 177 714 m 322 667 q 92 668 159 679 q 72 650 72 665 q 29 5 30 358 q 58 -13 30 -9 q 382 -12 220 -26 q 395 3 395 -8 q 360 647 393 431 q 322 667 358 664 z "},"¢":{"ha":772,"x_min":0,"x_max":0,"o":""},"£":{"ha":688,"x_min":0,"x_max":0,"o":""},"¤":{"ha":688,"x_min":0,"x_max":0,"o":""},"¥":{"ha":856,"x_min":0,"x_max":0,"o":""},"¦":{"ha":688,"x_min":0,"x_max":0,"o":""},"§":{"ha":688,"x_min":0,"x_max":0,"o":""},"¨":{"ha":694,"x_min":39,"x_max":672,"o":"m 382 1127 q 408 1093 382 1096 q 600 1093 493 1085 q 640 1110 634 1097 q 641 1353 672 1240 q 606 1381 629 1377 q 418 1382 530 1396 q 384 1358 389 1377 q 382 1127 374 1238 m 329 1127 q 328 1358 338 1238 q 293 1382 322 1377 q 105 1381 182 1396 q 71 1353 82 1377 q 71 1110 39 1240 q 112 1093 77 1097 q 304 1093 218 1085 q 329 1127 329 1096 z "},"©":{"ha":1135,"x_min":0,"x_max":0,"o":""},"ª":{"ha":439,"x_min":0,"x_max":0,"o":""},"«":{"ha":640,"x_min":0,"x_max":0,"o":""},"¬":{"ha":688,"x_min":0,"x_max":0,"o":""},"®":{"ha":1135,"x_min":0,"x_max":0,"o":""},"¯":{"ha":454,"x_min":0,"x_max":0,"o":""},"°":{"ha":507,"x_min":-3,"x_max":452,"o":"m 38 528 q 3 854 -3 589 q 77 966 8 926 q 338 984 145 1003 q 438 833 422 974 q 406 536 452 623 q 209 472 369 471 q 38 528 73 475 m 168 685 q 200 645 177 651 q 273 665 265 635 q 253 810 285 797 q 174 810 211 827 q 168 685 147 797 z "},"±":{"ha":688,"x_min":0,"x_max":0,"o":""},"²":{"ha":688,"x_min":0,"x_max":0,"o":""},"³":{"ha":688,"x_min":0,"x_max":0,"o":""},"´":{"ha":503,"x_min":8,"x_max":431,"o":"m 257 1390 q 23 1225 110 1293 q 19 1180 8 1208 q 128 1027 68 1078 q 176 1019 145 1010 q 421 1190 308 1072 q 416 1236 431 1204 q 307 1394 363 1329 q 257 1390 288 1411 z "},"µ":{"ha":800,"x_min":0,"x_max":0,"o":""},"¶":{"ha":694,"x_min":0,"x_max":0,"o":""},"·":{"ha":345,"x_min":0,"x_max":0,"o":""},"∙":{"ha":345,"x_min":0,"x_max":0,"o":""},"¸":{"ha":471,"x_min":14,"x_max":401,"o":"m 343 -36 q 394 -127 385 -68 q 333 -252 401 -216 q 141 -267 292 -275 q 14 -216 30 -254 q 100 -129 47 -139 q 208 -151 146 -191 q 201 -109 238 -127 q 64 -98 134 -98 q 63 41 62 -34 q 220 42 134 43 q 218 -22 216 8 q 343 -36 330 -20 z "},"¹":{"ha":688,"x_min":0,"x_max":0,"o":""},"º":{"ha":487,"x_min":0,"x_max":0,"o":""},"»":{"ha":640,"x_min":0,"x_max":0,"o":""},"¼":{"ha":1158,"x_min":0,"x_max":0,"o":""},"½":{"ha":1332,"x_min":0,"x_max":0,"o":""},"¾":{"ha":1158,"x_min":0,"x_max":0,"o":""},"¿":{"ha":1012,"x_min":-23,"x_max":872,"o":"m 683 576 q 662 706 684 683 q 343 708 365 722 q 245 605 345 623 q 79 522 114 567 q 37 166 -23 353 q 378 -20 104 -1 q 853 111 623 -39 q 869 127 872 118 q 770 376 867 193 q 736 383 762 389 q 380 271 568 271 q 345 296 353 275 q 338 342 336 324 q 361 379 338 364 q 410 399 380 391 q 608 470 543 427 q 683 576 673 513 m 370 743 q 656 745 546 739 q 685 778 678 749 q 683 959 703 885 q 648 993 679 981 q 349 992 510 1023 q 327 953 333 986 q 327 767 318 850 q 370 743 332 743 z "},"À":{"ha":1154,"x_min":29,"x_max":1112,"o":"m 411 184 q 734 197 581 188 q 800 -24 766 85 q 842 -33 806 -40 q 1094 39 996 0 q 1110 61 1112 45 q 888 956 1006 583 q 848 983 882 978 q 290 974 587 1011 q 262 956 267 968 q 31 45 144 583 q 47 23 29 30 q 297 -61 143 -28 q 339 -52 334 -68 q 411 184 377 66 m 521 602 q 629 603 576 602 q 673 422 650 512 q 476 420 584 422 q 521 602 500 511 m 545 1397 q 496 1401 514 1419 q 386 1244 439 1336 q 381 1198 371 1212 q 626 1026 494 1080 q 674 1034 657 1018 q 783 1187 734 1086 q 779 1232 794 1215 q 545 1397 692 1300 z "},"Á":{"ha":1154,"x_min":29,"x_max":1112,"o":"m 411 184 q 734 197 581 188 q 800 -24 766 85 q 842 -33 806 -40 q 1094 39 996 0 q 1110 61 1112 45 q 888 956 1006 583 q 848 983 882 978 q 290 974 587 1011 q 262 956 267 968 q 31 45 144 583 q 47 23 29 30 q 297 -61 143 -28 q 339 -52 334 -68 q 411 184 377 66 m 521 602 q 629 603 576 602 q 673 422 650 512 q 476 420 584 422 q 521 602 500 511 m 610 1400 q 376 1235 463 1303 q 372 1190 361 1218 q 481 1037 421 1088 q 529 1029 498 1021 q 774 1200 661 1082 q 769 1246 784 1215 q 659 1404 715 1339 q 610 1400 641 1421 z "},"Â":{"ha":1154,"x_min":29,"x_max":1112,"o":"m 411 184 q 734 197 581 188 q 800 -24 766 85 q 842 -33 806 -40 q 1094 39 996 0 q 1110 61 1112 45 q 888 956 1006 583 q 848 983 882 978 q 290 974 587 1011 q 262 956 267 968 q 31 45 144 583 q 47 23 29 30 q 297 -61 143 -28 q 339 -52 334 -68 q 411 184 377 66 m 521 602 q 629 603 576 602 q 673 422 650 512 q 476 420 584 422 q 521 602 500 511 m 600 1407 q 564 1407 581 1413 q 319 1236 432 1354 q 323 1190 309 1221 q 433 1032 377 1097 q 483 1036 452 1014 q 582 1102 536 1071 q 681 1036 627 1071 q 730 1032 712 1014 q 840 1190 786 1097 q 845 1236 854 1221 q 600 1407 731 1354 z "},"Ã":{"ha":1154,"x_min":29,"x_max":1112,"o":"m 411 184 q 734 197 581 188 q 800 -24 766 85 q 842 -33 806 -40 q 1094 39 996 0 q 1110 61 1112 45 q 888 956 1006 583 q 848 983 882 978 q 290 974 587 1011 q 262 956 267 968 q 31 45 144 583 q 47 23 29 30 q 297 -61 143 -28 q 339 -52 334 -68 q 411 184 377 66 m 521 602 q 629 603 576 602 q 673 422 650 512 q 476 420 584 422 q 521 602 500 511 m 865 1088 q 884 1143 885 1095 l 885 1352 q 867 1373 880 1379 q 578 1364 686 1336 q 262 1375 341 1398 q 245 1346 250 1375 l 246 1120 q 261 1074 245 1074 q 390 1109 327 1103 q 586 1073 475 1113 q 865 1088 724 1042 z "},"Ä":{"ha":1154,"x_min":29,"x_max":1112,"o":"m 411 184 q 734 197 581 188 q 800 -24 766 85 q 842 -33 806 -40 q 1094 39 996 0 q 1110 61 1112 45 q 888 956 1006 583 q 848 983 882 978 q 290 974 587 1011 q 262 956 267 968 q 31 45 144 583 q 47 23 29 30 q 297 -61 143 -28 q 339 -52 334 -68 q 411 184 377 66 m 521 602 q 629 603 576 602 q 673 422 650 512 q 476 420 584 422 q 521 602 500 511 m 591 1118 q 616 1083 591 1086 q 808 1083 701 1076 q 848 1101 842 1088 q 849 1343 880 1231 q 814 1371 838 1368 q 627 1373 738 1387 q 592 1349 597 1367 q 591 1118 582 1228 m 537 1118 q 536 1349 546 1228 q 501 1373 530 1367 q 313 1371 390 1387 q 279 1343 290 1368 q 279 1101 248 1231 q 320 1083 286 1088 q 512 1083 427 1076 q 537 1118 537 1086 z "},"Å":{"ha":1154,"x_min":29,"x_max":1112,"o":"m 411 184 q 734 197 581 188 q 800 -24 766 85 q 842 -33 806 -40 q 1094 39 996 0 q 1110 61 1112 45 q 888 956 1006 583 q 848 983 882 978 q 290 974 587 1011 q 262 956 267 968 q 31 45 144 583 q 47 23 29 30 q 297 -61 143 -28 q 339 -52 334 -68 q 411 184 377 66 m 521 602 q 629 603 576 602 q 673 422 650 512 q 476 420 584 422 q 521 602 500 511 m 400 1076 q 368 1318 362 1121 q 437 1401 372 1371 q 680 1415 500 1429 q 772 1303 758 1408 q 743 1081 785 1146 q 559 1034 708 1033 q 400 1076 433 1036 m 522 1192 q 551 1162 529 1166 q 618 1177 612 1154 q 600 1286 629 1276 q 526 1286 561 1298 q 522 1192 501 1276 z "},"Æ":{"ha":1611,"x_min":29,"x_max":1569,"o":"m 629 603 q 673 422 650 512 q 476 420 584 422 q 521 602 500 511 q 629 603 576 602 m 970 -2 q 1534 20 1307 -1 q 1554 39 1551 20 q 1556 284 1569 133 q 1535 319 1554 317 q 1071 299 1368 308 q 1072 368 1072 334 q 1358 380 1232 376 q 1376 395 1373 380 q 1379 587 1390 469 q 1360 614 1376 613 q 1069 610 1246 614 q 1068 675 1069 642 q 1472 682 1271 682 q 1497 718 1494 684 q 1487 956 1508 863 q 1462 974 1482 975 q 879 970 1141 982 q 848 983 868 980 q 290 974 587 1011 q 262 956 267 968 q 31 45 144 583 q 47 23 29 30 q 297 -61 143 -28 q 339 -52 334 -68 q 411 184 377 66 q 734 197 581 188 q 800 -24 766 85 q 842 -33 806 -40 q 970 -2 911 -18 z "},"Ç":{"ha":1003,"x_min":-10,"x_max":953,"o":"m 410 -7 q 205 16 307 -3 q 62 109 107 40 q 36 728 -10 241 q 176 943 64 919 q 892 946 576 1004 q 913 921 917 936 q 848 689 894 796 q 804 677 838 669 q 406 643 593 698 q 359 604 370 633 q 354 460 349 551 q 395 287 363 340 q 437 262 412 267 q 861 319 597 243 q 884 314 878 326 q 950 102 923 245 q 937 78 953 85 q 565 -2 748 14 q 566 -30 565 -16 q 690 -43 677 -28 q 741 -134 732 -75 q 680 -260 748 -223 q 488 -274 640 -282 q 361 -224 377 -262 q 447 -136 395 -146 q 555 -159 493 -198 q 548 -117 585 -135 q 412 -105 481 -106 q 410 -7 410 -58 z "},"È":{"ha":1008,"x_min":5,"x_max":963,"o":"m 465 303 q 466 372 466 338 q 753 384 626 380 q 770 399 768 385 q 773 591 784 473 q 754 618 770 617 q 464 614 640 618 q 463 679 463 646 q 867 686 665 686 q 891 722 888 688 q 882 960 902 867 q 857 978 877 979 q 28 959 376 990 q 5 931 9 958 q 33 670 7 803 q 52 659 37 658 q 114 663 83 661 q 126 26 110 374 q 148 8 128 11 q 331 2 223 -1 q 928 24 690 2 q 948 43 945 24 q 951 288 963 137 q 930 323 948 321 q 465 303 762 312 m 461 1397 q 412 1401 430 1419 q 302 1244 355 1336 q 297 1198 287 1212 q 542 1026 410 1080 q 590 1034 573 1018 q 699 1187 650 1086 q 695 1232 710 1215 q 461 1397 608 1300 z "},"É":{"ha":1008,"x_min":5,"x_max":963,"o":"m 465 303 q 466 372 466 338 q 753 384 626 380 q 770 399 768 385 q 773 591 784 473 q 754 618 770 617 q 464 614 640 618 q 463 679 463 646 q 867 686 665 686 q 891 722 888 688 q 882 960 902 867 q 857 978 877 979 q 28 959 376 990 q 5 931 9 958 q 33 670 7 803 q 52 659 37 658 q 114 663 83 661 q 126 26 110 374 q 148 8 128 11 q 331 2 223 -1 q 928 24 690 2 q 948 43 945 24 q 951 288 963 137 q 930 323 948 321 q 465 303 762 312 m 563 1398 q 329 1233 416 1301 q 325 1188 314 1216 q 434 1035 374 1086 q 482 1027 451 1019 q 727 1198 614 1080 q 722 1244 737 1213 q 612 1402 669 1337 q 563 1398 594 1419 z "},"Ê":{"ha":1008,"x_min":5,"x_max":963,"o":"m 465 303 q 466 372 466 338 q 753 384 626 380 q 770 399 768 385 q 773 591 784 473 q 754 618 770 617 q 464 614 640 618 q 463 679 463 646 q 867 686 665 686 q 891 722 888 688 q 882 960 902 867 q 857 978 877 979 q 28 959 376 990 q 5 931 9 958 q 33 670 7 803 q 52 659 37 658 q 114 663 83 661 q 126 26 110 374 q 148 8 128 11 q 331 2 223 -1 q 928 24 690 2 q 948 43 945 24 q 951 288 963 137 q 930 323 948 321 q 465 303 762 312 m 498 1407 q 462 1407 479 1413 q 217 1236 330 1354 q 222 1190 207 1221 q 332 1032 275 1097 q 381 1036 350 1014 q 480 1102 435 1071 q 579 1036 526 1071 q 629 1032 610 1014 q 738 1190 684 1097 q 743 1236 753 1221 q 498 1407 629 1354 z "},"Ë":{"ha":1008,"x_min":5,"x_max":963,"o":"m 465 303 q 466 372 466 338 q 753 384 626 380 q 770 399 768 385 q 773 591 784 473 q 754 618 770 617 q 464 614 640 618 q 463 679 463 646 q 867 686 665 686 q 891 722 888 688 q 882 960 902 867 q 857 978 877 979 q 28 959 376 990 q 5 931 9 958 q 33 670 7 803 q 52 659 37 658 q 114 663 83 661 q 126 26 110 374 q 148 8 128 11 q 331 2 223 -1 q 928 24 690 2 q 948 43 945 24 q 951 288 963 137 q 930 323 948 321 q 465 303 762 312 m 489 1125 q 514 1090 489 1094 q 706 1090 600 1083 q 747 1108 741 1095 q 747 1351 779 1238 q 713 1379 736 1375 q 525 1380 636 1394 q 490 1356 496 1375 q 489 1125 480 1236 m 435 1125 q 434 1356 444 1236 q 399 1380 429 1375 q 212 1379 288 1394 q 177 1351 189 1375 q 178 1108 146 1238 q 218 1090 184 1095 q 410 1090 325 1083 q 435 1125 435 1094 z "},"Ì":{"ha":448,"x_min":5,"x_max":428,"o":"m 315 2 q 353 25 351 5 q 368 790 366 281 q 355 808 368 803 q 72 809 214 824 q 43 787 43 804 q 65 22 43 368 q 85 1 65 3 q 315 2 152 -12 m 179 1316 q 130 1320 148 1338 q 20 1163 73 1255 q 15 1117 5 1131 q 260 945 128 999 q 308 954 291 937 q 417 1107 368 1005 q 413 1152 428 1135 q 179 1316 326 1219 z "},"Í":{"ha":448,"x_min":14,"x_max":437,"o":"m 315 2 q 353 25 351 5 q 368 790 366 281 q 355 808 368 803 q 72 809 214 824 q 43 787 43 804 q 65 22 43 368 q 85 1 65 3 q 315 2 152 -12 m 263 1320 q 29 1155 116 1223 q 25 1110 14 1138 q 134 957 75 1008 q 182 949 151 941 q 427 1120 314 1002 q 422 1166 437 1135 q 313 1324 369 1259 q 263 1320 294 1341 z "},"Î":{"ha":504,"x_min":-35,"x_max":511,"o":"m 349 2 q 387 25 385 5 q 401 790 399 281 q 388 808 401 803 q 105 809 247 824 q 76 787 77 804 q 98 22 77 368 q 118 1 98 3 q 349 2 185 -12 m 257 1343 q 220 1343 237 1348 q -24 1171 89 1289 q -20 1125 -35 1157 q 90 968 34 1033 q 140 971 109 949 q 239 1038 193 1006 q 338 971 284 1006 q 387 968 369 949 q 496 1125 443 1033 q 502 1171 511 1157 q 257 1343 388 1289 z "},"Ï":{"ha":563,"x_min":-52,"x_max":581,"o":"m 372 2 q 410 25 408 5 q 425 790 422 281 q 412 808 425 803 q 129 809 271 824 q 100 787 100 804 q 122 22 100 368 q 142 1 122 3 q 372 2 209 -12 m 291 992 q 316 958 291 961 q 508 958 401 950 q 549 975 543 962 q 549 1218 581 1105 q 515 1246 538 1242 q 327 1247 438 1261 q 292 1223 298 1242 q 291 992 282 1103 m 237 992 q 236 1223 246 1103 q 201 1247 231 1242 q 14 1246 90 1261 q -21 1218 -9 1242 q -20 975 -52 1105 q 20 958 -14 962 q 212 958 127 950 q 237 992 237 961 z "},"Ð":{"ha":1243,"x_min":9,"x_max":1172,"o":"m 129 664 q 140 45 124 389 q 162 29 142 32 q 989 24 635 -47 q 1126 224 1104 56 q 1101 853 1172 718 q 960 952 1057 924 q 63 941 613 1029 q 50 916 47 933 q 62 665 44 770 q 85 660 68 653 q 129 664 104 662 m 473 296 q 471 674 476 481 q 736 671 652 690 q 777 645 760 666 q 814 504 808 589 q 809 344 819 404 q 764 305 799 315 q 473 296 625 274 m 664 553 q 646 575 662 574 q 37 572 441 578 q 23 564 26 572 q 22 400 9 479 q 39 383 25 383 q 644 384 404 382 q 662 397 659 385 q 664 553 675 456 z "},"Ñ":{"ha":1057,"x_min":39,"x_max":988,"o":"m 383 355 q 636 3 526 138 q 665 -21 654 -20 q 953 41 842 -24 q 988 81 985 59 q 961 932 984 536 q 939 960 961 954 q 695 991 868 983 q 655 969 657 992 q 644 604 649 830 q 384 979 497 824 q 370 990 376 989 q 75 930 170 994 q 39 890 39 908 q 66 39 43 435 q 88 11 67 18 q 332 -20 159 -12 q 372 2 370 -21 q 383 355 378 137 m 788 1079 q 807 1134 808 1085 l 808 1343 q 791 1363 803 1369 q 501 1355 609 1326 q 185 1365 264 1388 q 168 1337 174 1365 l 170 1111 q 184 1064 168 1064 q 313 1099 250 1093 q 509 1063 399 1103 q 788 1079 647 1033 z "},"Ò":{"ha":1291,"x_min":19,"x_max":1232,"o":"m 1029 945 q 1174 817 1127 920 q 1200 237 1232 682 q 1061 22 1173 46 q 193 33 552 -39 q 104 96 138 47 q 20 519 19 231 q 82 851 27 743 q 193 931 106 911 q 1029 945 614 1023 m 799 281 q 848 315 836 288 q 871 456 869 361 q 838 635 872 578 q 799 663 823 656 q 450 665 642 693 q 366 576 378 656 q 378 330 353 387 q 441 275 398 286 q 799 281 609 242 m 575 1395 q 526 1399 544 1417 q 416 1242 469 1334 q 411 1196 401 1210 q 656 1024 524 1078 q 704 1032 687 1016 q 813 1185 764 1084 q 809 1230 824 1213 q 575 1395 722 1298 z "},"Ó":{"ha":1291,"x_min":19,"x_max":1232,"o":"m 1029 945 q 1174 817 1127 920 q 1200 237 1232 682 q 1061 22 1173 46 q 193 33 552 -39 q 104 96 138 47 q 20 519 19 231 q 82 851 27 743 q 193 931 106 911 q 1029 945 614 1023 m 799 281 q 848 315 836 288 q 871 456 869 361 q 838 635 872 578 q 799 663 823 656 q 450 665 642 693 q 366 576 378 656 q 378 330 353 387 q 441 275 398 286 q 799 281 609 242 m 633 1398 q 399 1233 486 1301 q 395 1188 385 1216 q 505 1035 445 1086 q 553 1027 522 1019 q 798 1198 684 1080 q 793 1244 808 1213 q 683 1402 739 1337 q 633 1398 665 1419 z "},"Ô":{"ha":1291,"x_min":19,"x_max":1232,"o":"m 1029 945 q 1174 817 1127 920 q 1200 237 1232 682 q 1061 22 1173 46 q 193 33 552 -39 q 104 96 138 47 q 20 519 19 231 q 82 851 27 743 q 193 931 106 911 q 1029 945 614 1023 m 799 281 q 848 315 836 288 q 871 456 869 361 q 838 635 872 578 q 799 663 823 656 q 450 665 642 693 q 366 576 378 656 q 378 330 353 387 q 441 275 398 286 q 799 281 609 242 m 633 1402 q 597 1402 614 1407 q 352 1230 465 1348 q 357 1184 342 1216 q 467 1027 410 1092 q 516 1030 485 1008 q 615 1097 570 1065 q 714 1030 661 1065 q 764 1027 745 1008 q 873 1184 819 1092 q 878 1230 888 1216 q 633 1402 764 1348 z "},"Õ":{"ha":1291,"x_min":19,"x_max":1232,"o":"m 1029 945 q 1174 817 1127 920 q 1200 237 1232 682 q 1061 22 1173 46 q 193 33 552 -39 q 104 96 138 47 q 20 519 19 231 q 82 851 27 743 q 193 931 106 911 q 1029 945 614 1023 m 799 281 q 848 315 836 288 q 871 456 869 361 q 838 635 872 578 q 799 663 823 656 q 450 665 642 693 q 366 576 378 656 q 378 330 353 387 q 441 275 398 286 q 799 281 609 242 m 924 1088 q 943 1143 944 1095 l 944 1352 q 926 1373 939 1379 q 637 1364 745 1336 q 321 1375 400 1398 q 304 1346 309 1375 l 305 1120 q 320 1074 304 1074 q 449 1109 386 1103 q 645 1073 534 1113 q 924 1088 783 1042 z "},"Ö":{"ha":1291,"x_min":19,"x_max":1232,"o":"m 1029 945 q 1174 817 1127 920 q 1200 237 1232 682 q 1061 22 1173 46 q 193 33 552 -39 q 104 96 138 47 q 20 519 19 231 q 82 851 27 743 q 193 931 106 911 q 1029 945 614 1023 m 799 281 q 848 315 836 288 q 871 456 869 361 q 838 635 872 578 q 799 663 823 656 q 450 665 642 693 q 366 576 378 656 q 378 330 353 387 q 441 275 398 286 q 799 281 609 242 m 651 1114 q 676 1080 651 1083 q 868 1080 762 1072 q 909 1097 903 1084 q 909 1340 941 1227 q 875 1368 898 1364 q 687 1369 798 1383 q 652 1345 658 1364 q 651 1114 642 1225 m 597 1114 q 596 1345 606 1225 q 562 1369 591 1364 q 374 1368 450 1383 q 339 1340 351 1364 q 340 1097 308 1227 q 380 1080 346 1084 q 572 1080 487 1072 q 597 1114 597 1083 z "},"×":{"ha":756,"x_min":10,"x_max":682,"o":"m 570 486 q 671 591 618 536 q 671 610 679 598 q 483 803 583 718 q 450 811 460 821 q 345 708 395 758 q 240 810 295 757 q 221 810 233 817 q 28 621 113 722 q 19 589 10 600 q 120 486 71 536 q 20 385 66 432 q 22 358 10 374 q 203 172 83 279 q 241 159 228 149 q 345 259 287 202 q 446 159 398 205 q 473 161 456 149 q 659 341 552 221 q 671 380 682 367 q 570 486 628 427 z "},"Ø":{"ha":1291,"x_min":19,"x_max":1232,"o":"m 578 677 q 450 665 516 675 q 366 576 378 656 q 378 330 353 387 q 431 278 396 291 q 578 677 510 486 m 663 262 q 799 281 729 267 q 848 315 836 288 q 871 456 869 361 q 838 635 872 578 q 799 663 823 656 q 789 665 794 663 q 727 466 759 571 q 663 262 698 371 m 895 966 q 1029 945 962 958 q 1174 817 1127 920 q 1200 237 1232 682 q 1061 22 1173 46 q 575 -5 798 -9 q 554 -68 565 -37 q 522 -102 542 -96 q 300 -99 400 -117 q 298 -66 285 -90 q 328 12 313 -27 q 193 33 258 20 q 104 96 138 47 q 20 519 19 231 q 82 851 27 743 q 193 931 106 911 q 680 980 437 984 q 707 1068 694 1027 q 730 1097 713 1086 q 909 1103 800 1120 q 924 1050 937 1088 q 895 966 910 1010 z "},"Ù":{"ha":1069,"x_min":-14,"x_max":1042,"o":"m 681 956 q 936 995 762 982 q 960 981 953 998 q 975 177 1042 530 q 882 34 951 79 q 262 7 749 -39 q 48 147 72 36 q 68 965 -14 548 q 93 986 73 986 q 338 941 231 987 q 350 897 358 930 q 348 377 311 564 q 387 331 357 341 q 531 326 439 321 q 685 366 631 334 q 709 407 705 382 q 675 932 729 567 q 681 956 669 950 m 461 1397 q 412 1401 430 1419 q 302 1244 355 1336 q 297 1198 287 1212 q 542 1026 410 1080 q 590 1034 573 1018 q 699 1187 650 1086 q 695 1232 710 1215 q 461 1397 608 1300 z "},"Ú":{"ha":1069,"x_min":-14,"x_max":1042,"o":"m 681 956 q 936 995 762 982 q 960 981 953 998 q 975 177 1042 530 q 882 34 951 79 q 262 7 749 -39 q 48 147 72 36 q 68 965 -14 548 q 93 986 73 986 q 338 941 231 987 q 350 897 358 930 q 348 377 311 564 q 387 331 357 341 q 531 326 439 321 q 685 366 631 334 q 709 407 705 382 q 675 932 729 567 q 681 956 669 950 m 581 1400 q 347 1235 433 1303 q 342 1190 332 1218 q 452 1037 392 1088 q 500 1029 469 1021 q 745 1200 631 1082 q 740 1246 755 1215 q 630 1404 686 1339 q 581 1400 612 1421 z "},"Û":{"ha":1069,"x_min":-14,"x_max":1042,"o":"m 681 956 q 936 995 762 982 q 960 981 953 998 q 975 177 1042 530 q 882 34 951 79 q 262 7 749 -39 q 48 147 72 36 q 68 965 -14 548 q 93 986 73 986 q 338 941 231 987 q 350 897 358 930 q 348 377 311 564 q 387 331 357 341 q 531 326 439 321 q 685 366 631 334 q 709 407 705 382 q 675 932 729 567 q 681 956 669 950 m 528 1405 q 491 1405 508 1411 q 246 1234 359 1352 q 251 1187 236 1219 q 361 1030 304 1095 q 410 1034 379 1012 q 509 1100 464 1069 q 608 1034 555 1069 q 658 1030 640 1012 q 767 1187 713 1095 q 772 1234 782 1219 q 528 1405 659 1352 z "},"Ü":{"ha":1069,"x_min":-14,"x_max":1042,"o":"m 681 956 q 936 995 762 982 q 960 981 953 998 q 975 177 1042 530 q 882 34 951 79 q 262 7 749 -39 q 48 147 72 36 q 68 965 -14 548 q 93 986 73 986 q 338 941 231 987 q 350 897 358 930 q 348 377 311 564 q 387 331 357 341 q 531 326 439 321 q 685 366 631 334 q 709 407 705 382 q 675 932 729 567 q 681 956 669 950 m 546 1120 q 571 1085 546 1088 q 763 1085 656 1078 q 804 1103 798 1090 q 804 1345 836 1233 q 770 1373 793 1370 q 582 1375 693 1389 q 547 1351 553 1369 q 546 1120 537 1230 m 492 1120 q 491 1351 501 1230 q 456 1375 486 1369 q 269 1373 345 1389 q 234 1345 245 1370 q 235 1103 203 1233 q 275 1085 241 1090 q 467 1085 382 1078 q 492 1120 492 1088 z "},"Ý":{"ha":836,"x_min":0,"x_max":0,"o":""},"Þ":{"ha":760,"x_min":0,"x_max":0,"o":""},"ß":{"ha":1170,"x_min":126,"x_max":1147,"o":"m 537 11 q 949 -14 748 -43 q 1083 90 1049 15 q 1038 443 1147 284 q 999 474 1022 461 q 1046 791 1097 495 q 937 950 1019 918 q 500 1004 764 1007 q 263 964 363 1001 q 138 734 140 919 q 141 43 126 368 q 162 18 143 28 q 412 -22 247 0 q 481 -2 458 -26 q 509 703 477 687 q 684 711 570 732 q 764 674 754 703 q 763 623 766 644 q 738 574 761 596 q 705 554 724 557 q 546 538 621 532 l 543 363 q 589 364 563 363 q 746 340 731 359 q 770 275 770 309 q 764 228 772 260 q 728 205 756 210 q 538 235 648 190 l 537 11 z "},"à":{"ha":625,"x_min":0,"x_max":0,"o":""},"á":{"ha":625,"x_min":0,"x_max":0,"o":""},"â":{"ha":625,"x_min":0,"x_max":0,"o":""},"ã":{"ha":625,"x_min":0,"x_max":0,"o":""},"ä":{"ha":625,"x_min":0,"x_max":0,"o":""},"å":{"ha":625,"x_min":0,"x_max":0,"o":""},"æ":{"ha":986,"x_min":0,"x_max":0,"o":""},"ç":{"ha":614,"x_min":0,"x_max":0,"o":""},"è":{"ha":616,"x_min":0,"x_max":0,"o":""},"é":{"ha":616,"x_min":0,"x_max":0,"o":""},"ê":{"ha":616,"x_min":0,"x_max":0,"o":""},"ë":{"ha":616,"x_min":0,"x_max":0,"o":""},"ì":{"ha":349,"x_min":0,"x_max":0,"o":""},"í":{"ha":349,"x_min":0,"x_max":0,"o":""},"î":{"ha":349,"x_min":0,"x_max":0,"o":""},"ï":{"ha":349,"x_min":0,"x_max":0,"o":""},"ð":{"ha":772,"x_min":0,"x_max":0,"o":""},"ñ":{"ha":751,"x_min":0,"x_max":0,"o":""},"ò":{"ha":685,"x_min":0,"x_max":0,"o":""},"ó":{"ha":685,"x_min":0,"x_max":0,"o":""},"ô":{"ha":685,"x_min":0,"x_max":0,"o":""},"õ":{"ha":685,"x_min":0,"x_max":0,"o":""},"ö":{"ha":685,"x_min":0,"x_max":0,"o":""},"÷":{"ha":446,"x_min":16,"x_max":400,"o":"m 349 130 q 391 155 387 130 q 391 347 400 240 q 369 387 385 381 q 70 388 208 419 q 35 353 39 376 q 33 165 16 277 q 62 131 40 136 q 349 130 172 125 m 349 562 q 391 587 387 562 q 391 779 400 672 q 369 819 385 813 q 70 820 208 851 q 35 785 39 808 q 33 597 16 709 q 62 563 40 568 q 349 562 172 557 m 349 130 q 391 155 387 130 q 391 347 400 240 q 369 387 385 381 q 70 388 208 419 q 35 353 39 376 q 33 165 16 277 q 62 131 40 136 q 349 130 172 125 z "},"ø":{"ha":685,"x_min":0,"x_max":0,"o":""},"ù":{"ha":718,"x_min":0,"x_max":0,"o":""},"ú":{"ha":718,"x_min":0,"x_max":0,"o":""},"û":{"ha":718,"x_min":0,"x_max":0,"o":""},"ü":{"ha":718,"x_min":0,"x_max":0,"o":""},"ý":{"ha":589,"x_min":0,"x_max":0,"o":""},"þ":{"ha":685,"x_min":0,"x_max":0,"o":""},"ÿ":{"ha":589,"x_min":0,"x_max":0,"o":""},"ı":{"ha":349,"x_min":0,"x_max":0,"o":""},"ˆ":{"ha":688,"x_min":-115,"x_max":431,"o":"m 177 1399 q 140 1399 157 1404 q -104 1227 9 1345 q -100 1181 -115 1213 q 10 1024 -46 1089 q 60 1027 28 1006 q 159 1094 113 1063 q 258 1027 204 1063 q 307 1024 289 1006 q 416 1181 363 1089 q 422 1227 431 1213 q 177 1399 308 1345 z "},"ˇ":{"ha":694,"x_min":0,"x_max":0,"o":""},"ˉ":{"ha":694,"x_min":0,"x_max":0,"o":""},"˘":{"ha":694,"x_min":0,"x_max":0,"o":""},"˙":{"ha":694,"x_min":0,"x_max":0,"o":""},"˚":{"ha":469,"x_min":-1,"x_max":422,"o":"m 37 1078 q 5 1320 -1 1123 q 74 1403 10 1373 q 317 1417 137 1431 q 410 1305 395 1410 q 380 1083 422 1148 q 197 1036 346 1035 q 37 1078 70 1038 m 159 1194 q 189 1164 167 1168 q 256 1179 249 1156 q 237 1288 267 1278 q 164 1288 198 1300 q 159 1194 139 1278 z "},"˛":{"ha":694,"x_min":0,"x_max":0,"o":""},"˜":{"ha":729,"x_min":18,"x_max":658,"o":"m 637 1122 q 656 1177 658 1128 l 658 1385 q 640 1406 652 1412 q 351 1398 458 1369 q 35 1408 114 1431 q 18 1379 23 1408 l 19 1154 q 34 1107 18 1107 q 163 1142 100 1136 q 359 1106 248 1146 q 637 1122 496 1076 z "},"˝":{"ha":694,"x_min":0,"x_max":0,"o":""},"–":{"ha":751,"x_min":0,"x_max":0,"o":""},"—":{"ha":1389,"x_min":0,"x_max":0,"o":""},"‘":{"ha":378,"x_min":0,"x_max":0,"o":""},"’":{"ha":378,"x_min":0,"x_max":0,"o":""},"‚":{"ha":378,"x_min":0,"x_max":0,"o":""},"“":{"ha":617,"x_min":0,"x_max":0,"o":""},"”":{"ha":617,"x_min":0,"x_max":0,"o":""},"„":{"ha":617,"x_min":0,"x_max":0,"o":""},"†":{"ha":999,"x_min":0,"x_max":0,"o":""},"‡":{"ha":688,"x_min":0,"x_max":0,"o":""},"•":{"ha":694,"x_min":0,"x_max":0,"o":""},"…":{"ha":1389,"x_min":0,"x_max":0,"o":""},"‹":{"ha":428,"x_min":0,"x_max":0,"o":""},"›":{"ha":428,"x_min":0,"x_max":0,"o":""},"⁄":{"ha":232,"x_min":0,"x_max":0,"o":""},"∕":{"ha":232,"x_min":0,"x_max":0,"o":""},"₣":{"ha":688,"x_min":0,"x_max":0,"o":""},"₤":{"ha":688,"x_min":0,"x_max":0,"o":""},"₧":{"ha":1375,"x_min":0,"x_max":0,"o":""},"€":{"ha":1055,"x_min":13,"x_max":995,"o":"m 926 681 q 903 674 920 669 q 507 703 667 730 q 465 676 482 697 q 424 500 433 621 q 436 327 417 376 q 482 290 446 298 q 874 307 663 275 q 918 298 907 317 q 983 69 964 193 q 962 43 987 54 q 245 9 646 -32 q 106 216 134 26 q 132 836 60 700 q 275 937 177 907 q 979 920 629 1022 q 992 896 995 913 q 926 681 965 751 m 768 631 q 765 522 774 560 q 745 513 762 514 q 47 513 468 512 q 27 525 31 513 q 28 639 13 580 q 44 644 32 644 q 747 647 511 649 q 768 631 765 646 m 768 462 q 765 353 774 391 q 745 344 762 345 q 47 343 468 342 q 27 355 31 344 q 28 469 13 410 q 44 475 32 475 q 747 477 511 479 q 768 462 765 477 z "},"№":{"ha":1540,"x_min":0,"x_max":0,"o":""},"™":{"ha":1015,"x_min":0,"x_max":0,"o":""},"∂":{"ha":688,"x_min":0,"x_max":0,"o":""},"∆":{"ha":733,"x_min":0,"x_max":0,"o":""},"∏":{"ha":1027,"x_min":0,"x_max":0,"o":""},"∑":{"ha":818,"x_min":0,"x_max":0,"o":""},"−":{"ha":688,"x_min":0,"x_max":0,"o":""},"√":{"ha":688,"x_min":0,"x_max":0,"o":""},"∞":{"ha":688,"x_min":0,"x_max":0,"o":""},"∫":{"ha":451,"x_min":0,"x_max":0,"o":""},"≈":{"ha":688,"x_min":0,"x_max":0,"o":""},"≤":{"ha":688,"x_min":0,"x_max":0,"o":""},"≥":{"ha":688,"x_min":0,"x_max":0,"o":""},"":{"ha":728,"x_min":0,"x_max":0,"o":""},"ﬁ":{"ha":728,"x_min":0,"x_max":0,"o":""},"":{"ha":733,"x_min":0,"x_max":0,"o":""},"ﬂ":{"ha":733,"x_min":0,"x_max":0,"o":""},"Œ":{"ha":1774,"x_min":19,"x_max":1725,"o":"m 799 281 q 848 315 836 288 q 871 456 869 361 q 838 635 872 578 q 799 663 823 656 q 450 665 642 693 q 366 576 378 656 q 378 330 353 387 q 441 275 398 286 q 799 281 609 242 m 970 12 q 193 33 519 -33 q 104 96 138 47 q 20 519 19 231 q 82 851 27 743 q 193 931 106 911 q 833 972 515 1001 q 1619 987 1167 999 q 1644 969 1639 988 q 1653 731 1664 876 q 1629 696 1651 698 q 1225 688 1428 695 q 1226 623 1225 656 q 1516 627 1402 628 q 1535 601 1533 627 q 1533 408 1546 482 q 1515 393 1530 394 q 1228 382 1388 389 q 1227 313 1228 347 q 1692 332 1525 321 q 1713 298 1710 331 q 1710 53 1725 146 q 1691 33 1708 34 q 1093 12 1452 12 q 970 12 1025 9 z "},"‰":{"ha":1772,"x_min":-7,"x_max":1727,"o":"m 823 979 q 785 955 795 970 q 574 659 705 838 q 66 30 349 366 q 67 3 45 10 q 395 0 214 -12 q 446 28 426 5 q 755 464 628 278 q 971 767 871 635 q 1106 941 1047 863 q 1088 983 1128 972 q 823 979 927 998 m 35 528 q -1 854 -7 589 q 73 966 5 926 q 335 984 142 1003 q 435 833 419 974 q 403 536 448 623 q 205 472 366 471 q 35 528 69 475 m 165 685 q 197 645 174 651 q 269 665 262 635 q 250 810 281 797 q 170 810 208 827 q 165 685 144 797 m 806 444 q 977 500 840 497 q 1174 436 1137 501 q 1206 139 1219 349 q 1106 -12 1190 -2 q 844 6 913 -31 q 770 117 776 46 q 806 444 764 383 m 936 287 q 941 161 915 175 q 1021 161 979 145 q 1040 307 1053 175 q 968 328 1033 338 q 936 287 945 321 m 1313 444 q 1484 500 1348 497 q 1681 436 1644 501 q 1713 139 1727 349 q 1613 -12 1697 -2 q 1352 6 1420 -31 q 1278 117 1283 46 q 1313 444 1272 383 m 1443 287 q 1449 161 1422 175 q 1528 161 1486 145 q 1548 307 1560 175 q 1475 328 1540 338 q 1443 287 1452 321 z "}}}
